<svg xmlns="http://www.w3.org/2000/svg" xmlns:xlink="http://www.w3.org/1999/xlink" width="224" height="49" viewBox="0 0 224 49">
    <defs>
        <path id="a" d="M0 27.885c0 1.22 1.36 1.949 2.38 1.276l8.285-5.466a3.607 3.607 0 0 0 1.623-3.012V4.632L0 .084v27.8z"/>
        <linearGradient id="b" x1="59.039%" x2="33.168%" y1="16.135%" y2="77.75%">
            <stop offset="0%" stop-color="#6064AA"/>
            <stop offset="100%" stop-color="#838283"/>
        </linearGradient>
        <linearGradient id="e" x1="39.741%" x2="60.799%" y1="82.403%" y2="8.5%">
            <stop offset="0%" stop-opacity="0"/>
            <stop offset="59.995%" stop-opacity=".279"/>
            <stop offset="100%"/>
        </linearGradient>
        <path id="d" d="M0 .084l6.144 4.293 6.144 4.294v9.592L0 21.684z"/>
        <path id="f" d="M1.2 17.76c-1.57 1.023-1.576 3.316-.01 4.345l5.058 3.326a4.716 4.716 0 0 0 5.186-.003L36.665 8.791l-8.4-8.643L1.2 17.761z"/>
        <linearGradient id="g" x1="0%" y1="50%" y2="50%">
            <stop offset="0%" stop-color="#4D9CD6"/>
            <stop offset="100%" stop-color="#C40E59"/>
        </linearGradient>
        <linearGradient id="j" x1="78.117%" x2="0%" y1="32.4%" y2="67.307%">
            <stop offset="0%" stop-color="#231815"/>
            <stop offset="21.256%" stop-color="#4C4441" stop-opacity=".772"/>
            <stop offset="100%" stop-color="#D8D8D8" stop-opacity="0"/>
        </linearGradient>
        <path id="i" d="M20.95.148l10.685 7.116L9.177 21.972S-2.98 24.487.939 13.127L20.95.148z"/>
        <path id="k" d="M10.07.177a4.04 4.04 0 0 0-2.402.806L0 6.72l36.253 25.334 5.624-3.734a4.002 4.002 0 0 0 1.802-3.357v-.008a3.999 3.999 0 0 0-1.714-3.287L12.419.913a4.042 4.042 0 0 0-2.303-.736h-.046z"/>
        <linearGradient id="l" x1="0%" y1="50%" y2="50%">
            <stop offset="0%" stop-color="#4D9CD6"/>
            <stop offset="100%" stop-color="#C40E59"/>
        </linearGradient>
    </defs>
    <g fill="none" fill-rule="evenodd">
        <g transform="translate(0 6.79)">
            <mask id="c" fill="#fff">
                <use xlink:href="#a"/>
            </mask>
            <path fill="url(#b)" d="M0 27.885c0 1.22 1.36 1.949 2.38 1.276l8.285-5.466a3.607 3.607 0 0 0 1.623-3.012V4.632L0 .084v27.8z" mask="url(#c)"/>
        </g>
        <use fill="url(#e)" transform="translate(0 6.79)" xlink:href="#d"/>
        <g transform="translate(1.663 22.049)">
            <mask id="h" fill="#fff">
                <use xlink:href="#f"/>
            </mask>
            <path fill="url(#g)" d="M1.2 17.76c-1.57 1.023-1.576 3.316-.01 4.345l5.058 3.326a4.716 4.716 0 0 0 5.186-.003L36.665 8.791l-8.4-8.643L1.2 17.761z" mask="url(#h)"/>
        </g>
        <use fill="url(#j)" transform="translate(8.978 22.049)" xlink:href="#i"/>
        <g transform="translate(0 .155)">
            <mask id="m" fill="#fff">
                <use xlink:href="#k"/>
            </mask>
            <path fill="url(#l)" d="M10.07.177a4.04 4.04 0 0 0-2.402.806L0 6.72l36.253 25.334 5.624-3.734a4.002 4.002 0 0 0 1.802-3.357v-.008a3.999 3.999 0 0 0-1.714-3.287L12.419.913a4.042 4.042 0 0 0-2.303-.736h-.046z" mask="url(#m)"/>
        </g>
        <g fill="#353636">
            <path d="M149.167 26.513V4.855h5.326v38.066c-1.705 0-3.421.074-5.122-.058-.367-.029-.817-.746-.993-1.232-2.157-5.96-4.27-11.938-6.397-17.91-.236-.659-.5-1.307-1.016-1.931v21.008h-5.4V4.748c1.601 0 3.16-.112 4.683.066.486.057 1.085.814 1.285 1.374 2.256 6.306 4.444 12.636 6.655 18.958.17.488.383.962.576 1.443l.403-.076zM75.408 4.83h5.256v15.995h5.454V4.852h5.406v37.936h-5.31V26.51h-5.38v16.269h-5.426zM110.785 31.983l-2.81-12.967-.42.058c-.92 4.266-1.841 8.533-2.787 12.909h6.017zm-8.392 10.886h-5.537l8.118-38.026h5.633l8.137 38.086c-1.742 0-3.295.075-4.831-.054-.375-.032-.869-.685-1.005-1.143-.39-1.312-.625-2.67-.941-4.1h-8.368l-1.206 5.237zM214.948 34.156c-.73 2.58-1.419 4.733-1.933 6.928-.32 1.365-.812 1.83-2.394 1.88-1.224.04-2.386-.032-3.848-.032.845-3.01 1.643-5.853 2.443-8.695.808-2.874 1.68-5.732 2.395-8.629.231-.932.274-2.022.032-2.943-1.545-5.89-3.193-11.755-4.885-17.913 1.761 0 3.35-.076 4.922.055.372.032.856.708.998 1.175.761 2.506 1.43 5.04 2.277 8.09l2.58-9.244h5.6c-1.202 3.805-2.135 7.658-3.49 12.426-.63 2.057-1.458 5.282-1.472 5.498-.06.877-.093 1.337-.022 2.215.141 1.742.824 4.04 1.497 5.83 1.448 3.847 2.321 7.91 3.489 12.02h-5.678l-2.51-8.66M160.086 4.797h13.41v5.341h-7.958v10.786h8.006v5.405h-8.034V42.78h-5.424zM69.753 10.158h-2.534c-3 0-5.434 2.433-5.434 5.434v16.426a5.38 5.38 0 0 0 5.38 5.38h2.545v5.504c-1.077 0-2.65-.003-4.347-.009-5.083-.016-9.196-4.14-9.196-9.223V13.968c0-5.093 4.13-9.223 9.224-9.223h4.362v5.413zM179.45 42.836V4.877h5.35v32.539h5.397v5.42zM124.74 42.85h5.212V4.833h-5.211zM195.759 42.783h5.216V4.829h-5.216z"/>
        </g>
    </g>
</svg>
